<?xml version="1.0" encoding="utf-8"?>
<svg version="1.1" id="piteas" xmlns="http://www.w3.org/2000/svg" xmlns:xlink="http://www.w3.org/1999/xlink" x="0px" y="0px"
	 viewBox="0 0 512 512" enable-background="new 0 0 512 512" xml:space="preserve">
<g>
	
		<radialGradient id="SVGID_1_" cx="213.8411" cy="362.2961" r="50" gradientTransform="matrix(5.12 0 0 5.12 -838.8664 -1598.9563)" gradientUnits="userSpaceOnUse">
		<stop  offset="0" style="stop-color:#E72B6F"/>
		<stop  offset="1" style="stop-color:#D4175B"/>
	</radialGradient>
	<path fill="url(#SVGID_1_)" d="M256,0C114.615,0,0,114.62,0,256c0,141.39,114.615,256,256,256s256-114.61,256-256
		C512,114.62,397.385,0,256,0z M414.785,281c-0.755,0-1.516,0-2.266,0c-34.274,0-68.55,0-102.829,0
		c24.779,21,49.645,48.78,74.415,73.55c8.284,8.29,8.369,21.354,0.09,29.646c-8.285,8.289-21.945,8.298-30.235,0.008
		c-0.53-0.535-0.585-1.067-1.104-1.597C328.605,358.371,302,334.14,281,309.905c0,35.024,0,70.055,0,105.085
		c0,11.725-11.274,21.51-23,21.51c-11.73,0-23-9.785-23-21.51c0-0.755,0-1.516,0-2.26c0-34.28,0-68.551,0-102.82
		c-20,24.77-48.915,49.64-73.685,74.41c-8.285,8.29-21.435,8.38-29.72,0.095c-8.29-8.285-8.325-21.935-0.035-30.215
		c0.53-0.54,1.047-0.71,1.578-1.245C157.382,328.715,181.6,302,205.84,281c-35.035,0-70.065,0-105.1,0
		c-11.73,0-21.51-11.274-21.51-23c0-11.73,9.78-23,21.51-23c0.76,0,1.515,0,2.265,0c34.275,0,68.55,0,102.825,0
		c-24.77-20-49.64-48.8-74.405-73.57c-8.285-8.285-8.375-21.395-0.095-29.675c8.285-8.29,21.94-8.292,30.23-0.003
		c0.54,0.535,0.825,1.069,1.355,1.599C187.155,157.586,215,181.82,235,206.055c0-35.025,0-70.055,0-105.085
		c0-11.725,11.27-21.51,23-21.51c11.726,0,23,9.785,23,21.51c0,0.755,0,1.51,0,2.27c0,34.27,0,68.545,0,102.82
		c21-24.77,48.675-49.635,73.455-74.405c8.285-8.285,21.311-8.385,29.6-0.095c8.285,8.29,8.261,21.95-0.024,30.235
		c-0.54,0.535-1.083,0.705-1.618,1.24C358.177,187.265,333.935,215,309.7,235c35.024,0,70.055,0,105.085,0
		c11.725,0,21.51,11.27,21.51,23C436.295,269.726,426.51,281,414.785,281z"/>
	<path fill="#FFFFFF" d="M414.785,235c-35.03,0-70.061,0-105.085,0c24.234-20,48.465-47.735,72.7-71.965
		c0.534-0.535,1.064-0.7,1.604-1.235c8.285-8.285,8.285-21.947,0-30.237c-8.29-8.29-21.265-8.191-29.55,0.094
		C329.675,156.426,302,181.29,281,206.06c0-34.275,0-68.55,0-102.82c0-0.76,0-1.515,0-2.27c0-11.725-11.274-21.51-23-21.51
		c-11.73,0-23,9.785-23,21.51c0,35.03,0,70.06,0,105.085c-20-24.235-47.845-48.47-72.085-72.705c-0.53-0.53-0.745-1.065-1.285-1.6
		c-8.29-8.29-21.98-8.29-30.265,0c-8.28,8.28-8.207,21.395,0.077,29.68C156.207,186.2,181.06,215,205.83,235
		c-34.275,0-68.55,0-102.825,0c-0.75,0-1.505,0-2.265,0c-11.73,0-21.51,11.27-21.51,23c0,11.726,9.78,23,21.51,23
		c35.035,0,70.065,0,105.1,0c-24.24,21-48.475,47.715-72.72,71.955c-0.53,0.535-1.065,0.689-1.595,1.23
		c-8.29,8.279-8.29,21.938,0,30.223c8.285,8.285,21.505,8.198,29.79-0.092C186.085,359.546,215,334.68,235,309.91
		c0,34.27,0,68.54,0,102.82c0,0.744,0,1.505,0,2.26c0,11.725,11.27,21.51,23,21.51c11.726,0,23-9.785,23-21.51
		c0-35.03,0-70.061,0-105.085c21,24.234,47.605,48.47,71.855,72.705c0.52,0.529,0.625,1.064,1.154,1.6
		c8.291,8.29,21.926,8.29,30.211,0c8.279-8.29,8.182-21.37-0.103-29.66C359.348,329.78,334.47,302,309.69,281
		c34.279,0,68.555,0,102.829,0c0.75,0,1.511,0,2.266,0c11.725,0,21.51-11.274,21.51-23C436.295,246.27,426.51,235,414.785,235z"/>
</g>
</svg>
