<svg width="100" height="100" viewBox="0 0 100 100" fill="none" xmlns="http://www.w3.org/2000/svg">
<circle cx="50" cy="50" r="50" fill="#FFD700"/>
<circle cx="50" cy="50" r="42" fill="#0F00B3"/>
<path d="M76 70V69.4583C75.1092 69.4222 74.3298 69.2958 73.6617 69.0792C72.9936 68.8264 72.4368 68.5556 71.9914 68.2667C71.546 67.9417 71.1934 67.6528 70.9336 67.4C70.7109 67.1111 70.581 66.9306 70.5439 66.8583C70.3212 66.4611 70.1542 65.9194 70.0428 65.2333C69.9686 64.5111 69.9315 63.8069 69.9315 63.1208C69.8944 60.9903 69.8758 58.9681 69.8758 57.0542C69.8758 55.1042 69.8758 53.1542 69.8758 51.2042C69.8758 49.5431 69.8758 47.9 69.8758 46.275C69.8758 44.65 69.8944 42.9708 69.9315 41.2375C69.9686 39.9736 70.0243 38.6917 70.0985 37.3917C70.1727 36.0917 70.3212 35.1347 70.5439 34.5208C70.8408 33.7264 71.379 33.0403 72.1585 32.4625C72.975 31.8847 74.1442 31.5778 75.666 31.5417V31H63.8073C63.6959 31.2889 63.232 32.3542 62.4154 34.1958C61.636 36.0014 60.6153 38.2764 59.3533 41.0208C58.1285 43.7653 56.7366 46.8347 55.1777 50.2292C53.6188 53.6236 52.0228 57.0361 50.3897 60.4667L37.0835 31H25.2248V31.5417C25.6702 31.6139 26.2084 31.7403 26.8394 31.9208C27.4704 32.0653 28.0642 32.3181 28.621 32.6792C29.1777 33.0403 29.6602 33.5458 30.0685 34.1958C30.4768 34.8097 30.6995 35.6222 30.7366 36.6333C30.7737 37.6806 30.7923 38.5653 30.7923 39.2875C30.7923 40.0097 30.7923 40.7139 30.7923 41.4C30.7923 42.05 30.7923 42.7361 30.7923 43.4583C30.7923 44.1806 30.7923 45.0653 30.7923 46.1125C30.7923 48.5319 30.7737 50.8069 30.7366 52.9375C30.6995 55.0319 30.6438 56.8556 30.5696 58.4083C30.5325 60.25 30.4026 61.8208 30.1799 63.1208C29.9572 64.3847 29.6046 65.45 29.1221 66.3167C28.6395 67.1833 27.99 67.8694 27.1734 68.375C26.3569 68.8444 25.2991 69.2056 24 69.4583V70H38.531V69.4583C36.935 69.2417 35.6731 68.8986 34.7452 68.4292C33.8544 67.9236 33.1863 67.2556 32.7409 66.425C32.2955 65.5583 32.0171 64.5111 31.9058 63.2833C31.7944 62.0194 31.7388 60.5389 31.7388 58.8417C31.7388 56.2056 31.7388 53.8944 31.7388 51.9083C31.7388 49.9222 31.7388 48.0444 31.7388 46.275C31.7759 44.4694 31.7944 42.6639 31.7944 40.8583C31.8315 39.0167 31.8501 36.9042 31.8501 34.5208C32.0357 34.9181 32.3697 35.6764 32.8522 36.7958C33.3719 37.9153 34.0214 39.3056 34.8009 40.9667C35.5803 42.6278 36.4525 44.5236 37.4176 46.6542C38.3826 48.7847 39.4218 51.0778 40.5353 53.5333C41.6488 55.9528 42.7809 58.4806 43.9315 61.1167C45.1192 63.7528 46.3069 66.4069 47.4946 69.0792H47.8287C47.9029 68.8625 48.0885 68.4292 48.3854 67.7792C48.6824 67.0931 48.9979 66.3528 49.3319 65.5583C49.666 64.7278 50 63.9333 50.334 63.175C50.6681 62.3806 50.9279 61.8028 51.1135 61.4417C52.3383 58.7694 53.4518 56.3319 54.454 54.1292C55.4932 51.8903 56.5139 49.7056 57.5161 47.575C58.5182 45.4444 59.5203 43.2597 60.5225 41.0208C61.5617 38.7819 62.6938 36.3264 63.9186 33.6542V48.9833C63.9186 51.2944 63.9186 53.5333 63.9186 55.7C63.9186 57.8667 63.8815 60.1417 63.8073 62.525C63.7702 63.2472 63.6959 63.9694 63.5846 64.6917C63.4732 65.3778 63.3062 65.9556 63.0835 66.425C62.7123 67.1833 61.9886 67.8514 60.9122 68.4292C59.8358 69.0069 58.4996 69.3319 56.9036 69.4042V70H76Z" fill="#FFD700"/>
</svg>
