<svg width="100" height="100" viewBox="0 0 100 100" fill="none" xmlns="http://www.w3.org/2000/svg">
<circle cx="50" cy="50" r="50" fill="#FF0000"/>
<circle cx="50" cy="50" r="42" fill="black"/>
<path d="M49.2503 23.3031C49.7312 23.1087 50.2688 23.1087 50.7497 23.3031L72.7497 32.1987C73.5054 32.5042 74 33.2378 74 34.0528V53.0418C74 61.3477 69.5218 69.0083 62.2843 73.0834L50.9812 79.4475C50.372 79.7905 49.628 79.7905 49.0188 79.4475L37.7157 73.0834C30.4782 69.0083 26 61.3477 26 53.0418V34.0528C26 33.2378 26.4946 32.5042 27.2503 32.1987L49.2503 23.3031Z" fill="#FF0000"/>
<mask id="mask0_2546_761" style="mask-type:alpha" maskUnits="userSpaceOnUse" x="26" y="23" width="48" height="57">
<path d="M49.2503 23.3031C49.7312 23.1087 50.2688 23.1087 50.7497 23.3031L72.7497 32.1987C73.5054 32.5042 74 33.2378 74 34.0528V53.0418C74 61.3477 69.5218 69.0083 62.2843 73.0834L50.9812 79.4475C50.372 79.7905 49.628 79.7905 49.0188 79.4475L37.7157 73.0834C30.4782 69.0083 26 61.3477 26 53.0418V34.0528C26 33.2378 26.4946 32.5042 27.2503 32.1987L49.2503 23.3031Z" fill="#FF0000"/>
</mask>
<g mask="url(#mask0_2546_761)">
<rect x="50" width="60" height="100" fill="white"/>
</g>
</svg>
